<?xml version="1.0" encoding="utf-8"?>
<!-- Generator: Adobe Illustrator 27.5.0, SVG Export Plug-In . SVG Version: 6.00 Build 0)  -->
<svg version="1.1" id="Layer_1" xmlns="http://www.w3.org/2000/svg" xmlns:xlink="http://www.w3.org/1999/xlink" x="0px" y="0px"
	 viewBox="0 0 256 256" style="enable-background:new 0 0 256 256;" xml:space="preserve">
<style type="text/css">
	.st0{fill:#FF0000;}
	.st1{fill:#FFFFFF;}
	.st2{fill:#FFFFFF;stroke:#FFFFFF;stroke-width:0.125;stroke-miterlimit:10;}
</style>
<g transform="translate(1.4065934065934016 1.4065934065934016) scale(2.81 2.81)">
	<path id="rectangle" class="st0" d="M88.1,23.3c-1-3.9-4.1-6.9-8-8c-7-1.9-35.2-1.9-35.2-1.9s-28.1,0-35.2,1.9c-3.9,1-6.9,4.1-8,8
		C0,30.4,0,45,0,45s0,14.6,1.9,21.7c1,3.9,4.1,6.9,8,8c7,1.9,35.2,1.9,35.2,1.9s28.1,0,35.2-1.9c3.9-1,6.9-4.1,8-8
		C90,59.6,90,45,90,45S90,30.4,88.1,23.3z"/>
	<polygon id="triangle" class="st1" points="36,58.5 59.4,45 36,31.5 	"/>
</g>
<g id="stars">
	<g>
		<path id="top" class="st2" d="M223,34.6c-3.6-3-6.3-8.4-7.4-13.2c-1.3,4.8-3.8,10.1-7.4,13.2c-3.6,3-10.2,5.1-16,6.1
			c5.9,1,12.4,3.1,16,6.1c3.6,3,6.3,8.4,7.4,13.2c1.3-4.8,3.8-10.1,7.4-13.2c3.6-3,10.2-5.1,16-6.1C233.1,39.8,226.6,37.6,223,34.6z
			"/>
		<path id="right" class="st2" d="M247,59c-2.1-1.8-3.8-5-4.5-7.8c-0.8,2.8-2.3,6.1-4.5,7.8c-2.1,1.8-6.1,3.1-9.6,3.7
			c3.5,0.6,7.4,1.8,9.6,3.7c2.1,1.8,3.8,5,4.5,7.8c0.8-2.8,2.3-6.1,4.5-7.8c2.1-1.8,6.1-3.1,9.6-3.7C253.1,62.1,249.3,60.8,247,59z"
			/>
		<path id="left" class="st2" d="M207.8,65.2c-0.7,2.4-2,5.1-3.8,6.7s-5.1,2.6-8.1,3.1c3,0.6,6.3,1.6,8.1,3.1
			c1.8,1.6,3.1,4.1,3.8,6.5c0.7-2.4,2-5.1,3.8-6.7c1.8-1.6,5.1-2.6,8.1-3.1c-3-0.6-6.3-1.6-8.1-3.1
			C209.6,70.4,208.3,67.7,207.8,65.2z"/>
	</g>
</g>
</svg>
